# xmcd
#
# Track frame offsets: 
#        150
#        32343
#        57623
#        88495
#        113748
#        136810
#        169393
#        197648
#        227748
#        256478
#        285698
#        315683
#
# Disc length: 4583 seconds
#
# Revision: 0
# Processed by: cddbd v1.5.2PL0 Copyright (c) Steve Scherf et al.
# Submitted via: ExactAudioCopy v1.0b3
#
DISCID=ae11e50c
DTITLE=Various Artist - Transit Position Vol. 10
DYEAR=1900
DGENRE=
TTITLE0=Flexx - Wake Up (Digital Mix)
TTITLE1=Urban Cookie Collective - Sail Away (Digital Mix) 
TTITLE2=Corona - The Rhythm Of The Night (Digital Mix) 
TTITLE3=Phase III - You Got To Get Loose (Digital Mix) 
TTITLE4=U.S.U.R.A. - Drive Me Crazy (Digital Mix) 
TTITLE5=Zoom - This Must Be Love (Digital Mix) 
TTITLE6=Heavy Metal - Mentashma (Digital Mix) 
TTITLE7=Motiv8 - Rockin' For Myself (Digital Mix) 
TTITLE8=Magic Affair - Give Me All Your Love (Digital Mix) 
TTITLE9=Maxx - No More (Digital Mix) 
TTITLE10=Face II Face - I Want You (Digital Mix) 
TTITLE11=Unknown Artist - Unknown
EXTD=
EXTT0=
EXTT1=
EXTT2=
EXTT3=
EXTT4=
EXTT5=
EXTT6=
EXTT7=
EXTT8=
EXTT9=
EXTT10=
EXTT11=
PLAYORDER=
